# xmcd
#
# Track frame offsets: 
#        150
#        7447
#        17470
#        30042
#        42080
#        52032
#        60885
#        74310
#        91462
#        103580
#        113502
#        123712
#        136782
#        150962
#        161590
#        172542
#        182395
#        191000
#        200900
#        212437
#        221680
#        233265
#        245702
#        257152
#        266512
#        280097
#        289392
#        301615
#        313295
#        322192
#
# Disc length: 4433 seconds
#
# Revision: 1
# Processed by: cddbd v1.5.2PL0 Copyright (c) Steve Scherf et al.
# Submitted via: ExactAudioCopy v0.95b3
#
DISCID=9b114f1e
DTITLE=Various Artist - Can't You Hear Me Callin': 80 Years Of American Music (Dis
DTITLE=c 3)
DYEAR=2004
DGENRE=Bluegrass
TTITLE0=Flatt and Scruggs - The Martha White Theme
TTITLE1=Flatt and Scruggs - Don't Let Your Deal Go Down
TTITLE2=The Webster Brothers - Seven Year Blues
TTITLE3=Bill and Mary Reid - Get Down On Your Knees And Pray
TTITLE4=Carl Butler - Somebody Touched Me
TTITLE5=Arthur Smith and Don Reno - Feudin' Banjos
TTITLE6=The Osborne Brothers and Red Allen - Ruby, Are You Mad
TTITLE7=The Louvin Brothers - Knoxville Girl
TTITLE8=The Osborne Brothers and Red Allen - Once More
TTITLE9=Joe Maphis - Twin Banjo Special
TTITLE10=Jim and Jesse - Gosh, I Miss You All The Time
TTITLE11=Jimmy Martin - You Don't Know My Mind
TTITLE12=The Stanely Brothers - Rank Stranger
TTITLE13=Jim and Jesse - My Empty Arms
TTITLE14=Flatt and Scruggs (feat. Mother Maybelle Carter) - Foggy Mounta
TTITLE14=in Top
TTITLE15=Jim and Jesse - Beautiful Moon Of Kentucky
TTITLE16=Jim and Jesse - Stoney Creek
TTITLE17=Jim and Jesse - She Left Me Standing On The Mountain
TTITLE18=Jimmy Martin - Sunny Side Of The Mountain
TTITLE19=Arthur Smith - Just Joshing
TTITLE20=Jim and Jesse - (It's A Long, Long Way) To The Top Of The World
TTITLE21=Jim and Jesse - Cotton Mill Man
TTITLE22=Don Reno - Since Wedding Bells Have Rung
TTITLE23=Grandpa Jones - Rosalee
TTITLE24=Sara and Maybelle Carter - No More Goodbyes
TTITLE25=Flatt and Scruggs - The Ballad Of Jed Clampett
TTITLE26=Jim and Jesse - Rabbit In The Log
TTITLE27=The Osborne Brothers - Rocky Top
TTITLE28=Grandpa Jones - Mountain Dew
TTITLE29=Eric Weissberg and Steve Mandell - Dueling Banjos
EXTD=
EXTT0=
EXTT1=
EXTT2=
EXTT3=
EXTT4=
EXTT5=
EXTT6=
EXTT7=
EXTT8=
EXTT9=
EXTT10=
EXTT11=
EXTT12=
EXTT13=
EXTT14=
EXTT15=
EXTT16=
EXTT17=
EXTT18=
EXTT19=
EXTT20=
EXTT21=
EXTT22=
EXTT23=
EXTT24=
EXTT25=
EXTT26=
EXTT27=
EXTT28=
EXTT29=
PLAYORDER=
